<?xml version="1.0" encoding="utf-8"?>
<!-- Generator: Adobe Illustrator 27.0.0, SVG Export Plug-In . SVG Version: 6.00 Build 0)  -->
<svg version="1.1" id="Calque_1" xmlns="http://www.w3.org/2000/svg" xmlns:xlink="http://www.w3.org/1999/xlink" x="0px" y="0px"
	 viewBox="0 0 595.3 549.4" style="enable-background:new 0 0 595.3 549.4;" xml:space="preserve">
<style type="text/css">
	.st0{fill:#191919;}
	.st1{fill:#06056E;}
	.st2{fill:#A1D6F7;}
	.st3{fill:#1C4574;}
	.st4{fill:#0A036C;}
	.st5{fill:#69E0FC;}
	.st6{fill:#4581A6;}
	.st7{fill:#150E89;}
	.st8{fill:#A0F5F7;}
	.st9{fill:#336F7D;}
	.st10{fill:#FCADAE;}
	.st11{fill:#54B5CB;}
	.st12{fill:#F8AAB8;}
	.st13{fill:#4C4CFF;}
	.st14{fill:#FFFFFF;}
	.st15{fill:#FEFEFE;}
</style>
<g>
	<path class="st0" d="M425,287.8c-7.5,3.8-15.4,6.9-23.2,10.1c-39.2,16.5-79,31.7-119.2,45.6c-8.7,3-17.4,5.9-26.1,8.9
		c-2.7,0.9-2.8,1-2.4,3.8c1.3,10.5,2.8,21,4.1,31.5c1.1,8.6,2.1,17.2,2.9,25.9c0.8,9,1.5,18.1,2,27.1c0.3,5.9,0.2,11.8-0.7,17.6
		c-0.3,1.8-0.3,4.4-2.4,4.9c-2.3,0.5-3.4-1.9-4.4-3.7c-3.4-5.9-5.6-12.4-7.7-18.8c-7.3-21.8-13-44.1-18.4-66.5
		c-0.8-3.2-1.6-6.5-2.4-9.7c-0.6-2.4-0.6-2.5-3.1-1.7c-13.5,4-26.9,8-40.6,11.5c-14.6,3.8-29.2,7.3-44.2,9.4
		c-6.3,0.9-12.7,1.8-19.1,0.9c-0.2-5.2,1.5-10.1,3.1-14.9c2.2-0.9,3.8-2.6,5.7-3.8c15-10.1,31-18.4,47.2-26.4
		c6.9-3.4,13.7-6.9,20.8-9.8c5.9-2.4,11.7-5.3,17.5-7.9c2.6-1.2,2.6-1.2,2.1-3.9c-1-4.8-1.9-9.5-2.9-14.3c0.5-0.1,1-0.1,1.4,0.3
		c2.8,3.4,5.6,6.8,8.4,10.1c0.5,3,1,6.1,1.5,9.1c0.7,3.6,0.7,3.5-2.9,4.8c-1,0.3-2.5,0.1-3.2,2.2c2.5-0.7,4.5-1.3,6.5-1.9
		c1.2-0.4,2-1.2,1.4-2.6c-0.3-0.8-0.1-1.8-1-2.4c-0.1-2.6-1.2-5.1-0.9-7.7c1.6,1,3.1,2.2,4.6,3.4c4.7,4,9.9,7.3,15.4,10
		c15.1,7.2,31,9.8,47.7,7.6c9.1-1.2,17.7-3.9,25.9-7.8c12-5.6,22-13.9,30.3-24.3c7.7-9.6,13.3-20.3,16.4-32.2c0.3-1.3,0.2-2.9,1.3-4
		c7.4-2.4,14.9-4.7,22.3-7.2c6.4-2.1,13-3.8,19.3-6.3c1.4,0,2.3,1.1,3.4,1.6c2.9,1.4,5.6,2.9,8.9,3.1c-0.3,0.5-0.7,1-1,1.6
		c-0.7,0.2-1.4,0.5-2.2,0.6c-3.1,0.4-3.5,1.1-2.5,3.8c0.4,1.1,0.9,2.1,1.5,3.1c2.6,5.1,5.1,10.3,7.7,15.4
		C424.3,285.1,424.9,286.3,425,287.8z M210.7,332.4c-6,1.6-11.8,4-16.9,7.3C199.5,337.9,205,335,210.7,332.4z M212.5,331.6
		c1.7,0.2,3.1-0.3,4.4-1.4C215.1,329.7,213.8,330.8,212.5,331.6z"/>
	<path class="st1" d="M366.4,268.1c-1.1,1.1-0.9,2.6-1.3,4c-3.1,12-8.7,22.6-16.4,32.2c-8.3,10.4-18.2,18.6-30.3,24.3
		c-8.2,3.9-16.8,6.6-25.9,7.8c-16.7,2.2-32.6-0.4-47.7-7.6c-5.5-2.6-10.7-6-15.4-10c-1.5-1.2-3-2.4-4.6-3.4
		c-0.7-0.3-0.6-1.4-1.4-1.4c-2.8-3.4-5.6-6.8-8.4-10.1c-0.4-0.4-0.9-0.5-1.4-0.3c0,0,0.2-0.2,0.2-0.2c0.2-0.6,0.2-1.2-0.4-1.6
		c-2.5-4.5-2.5-4.5-6.2-2.7c-0.1-0.5-0.1-1-0.2-1.5c-0.9-3.6-2.3-4.3-5.8-2.9c-2.7,1-4.5,3-5.1,5.7c-0.6,2.5-2,4-4.2,5.1
		c-3.1,1.6-6.2,3.4-9.5,4.9c-1.8,0.8-3.8,1.7-3.8,4.2c-1.2,0.7-2.4,1.3-3.7,1.8c-7.1,2.7-14.2,5.4-21.2,8.6
		c-3.3,1.5-6.7,3.1-10.2,4.2c-3.5,1.2-6.7,2.9-9.9,4.8c-1.1-0.2-2,0.2-2.9,0.6c-5.4,2.7-10.8,5.4-16,8.5c-5.4,1.9-10.1,5.4-15.3,7.8
		c-3.9,1.8-7.7,3.9-11.5,6c-4.4,2.5-8.9,4.9-13.8,6.6c-0.5,0.4-0.5,0.7-0.1,1.1l0-0.1c-1.2-1.2-2.1,0.1-3,0.5
		c-3.6,1.3-7.2,2.6-11.1,2.8c-4.3,0.2-8.3-0.6-10.6-4.6c-2.5-4.2-3-8.6-0.4-13.1c2.2-3.8,5.5-6.4,9.1-8.5c7.7-4.5,16.1-7,24.7-9.2
		c0.2-0.1,0.5-0.1,0.7-0.2c1.6,0.1,3.3,0,4.9,0.4c3.5,0.8,6.9,1.4,10.5,1.7c1,0.1,2,0.2,3-0.1c1.2-0.4,2-1.2,2.1-2.5
		c0.1-1.2-0.8-1.8-1.7-2.3c-0.9-0.4-2-0.3-2.6-1.4c3.1-2,6.9-2.3,10.1-4c7.7-3.6,15.8-6.1,23.9-8.6c2.3-0.7,4.7-1,6.8-2.5
		c0.5,0.1,0.6-0.3,0.8-0.7l0,0.1c5.9-1,11.4-3.5,17-5.5c2.7-0.8,5.5-1.5,8.2-2.3c3.6-0.1,6.6-2,9.5-3.9c6.2-2.3,12.4-4.6,18.6-6.9
		c3.6-1.4,7-3,10.6-4.2c1.9-0.7,2-1.5,1.2-3.1c-0.8-1.6-1.4-3.3-2.1-4.9c0-0.7-0.2-1.2-0.8-1.6c-1-5.1-2.1-10.2-3.1-15.3
		c0-0.5,0-1.1,0-1.6c-0.2-2.1-0.5-4.3-0.5-6.4c-0.1-4.8,0.4-9.6,1.2-14.4c0.2-1.2,0.2-2.5,0.3-3.8c0.5-0.4,0.6-1.1,0.8-1.7
		c3.8-15.8,10.9-29.7,22.4-41.3c0.6-0.6,1.3-1.3,1.4-2.2c2.8-1.5,4.9-4,7.4-6c8-6.3,17-10.8,26.5-14.4c8.6-2.4,17.2-4.3,26.2-4
		c3.6,0.1,7.1,0.1,10.7,0.2c4.9,1.1,10,1.8,14.8,3.3c6.1,1.9,11.8,4.7,17.4,7.6c4.8,3.1,9.6,6.3,13.7,10.4
		c20,19.4,28,43.1,24.8,70.7c-0.2,1.9-0.5,3.8-0.7,5.7C366.4,267.3,366.4,267.7,366.4,268.1z M222.8,201c0.3-0.2,0.5-0.5,0.8-0.7
		c0.8-0.3,1.2-0.9,1.4-1.7c0.3-0.3,0.5-0.5,0.8-0.8c0.3-0.3,0.5-0.5,0.8-0.8c0.3-0.3,0.5-0.5,0.8-0.8c0.3-0.3,0.5-0.5,0.8-0.8
		c0.3-0.3,0.5-0.5,0.8-0.8c0.3-0.2,0.6-0.5,0.8-0.7c1.2-0.4,1.9-1.2,2.4-2.2c0.3-0.2,0.5-0.5,0.8-0.7c0.6-0.1,1.1-0.3,1.4-0.9
		c0.7-0.2,1.3-0.6,1.7-1.4c0.5-0.2,1.1-0.4,1.4-0.9c0.8-0.2,1.4-0.7,1.7-1.4c0.9-0.2,1.8-0.5,2.3-1.5c1.2-0.1,2.2-0.8,3-1.7
		c6.2-3.2,12.6-5.9,19.1-8.4c0.9-0.5,2.3,0.1,3-1.1c1.1,0,2.3,0.3,3.1-0.8c1.3,0,2.8,0.5,3.8-0.7c1.4,0,2.8,0,4.2,0
		c0-0.3,0-0.6-0.1-0.9c-1.3,0.6-2.9-0.5-4.1,0.9c-1.4-0.2-2.8-0.5-3.8,0.7c-1.1-0.2-2.1-0.1-3.2,0.3c-1.2,0.2-2.4,0.2-3.3,1.1
		c-7.1,1.2-13.3,4.3-19.3,8.2c-1.2,0.3-2.2,0.8-2.9,1.7c-0.9,0.3-1.7,0.8-2.3,1.5c-0.8,0.2-1.4,0.6-1.7,1.4
		c-0.6,0.1-1.1,0.4-1.4,0.9c-0.8,0.2-1.3,0.7-1.6,1.4c-0.6,0.2-1.1,0.4-1.4,1c-0.3,0.3-0.5,0.5-0.8,0.8c-1.1,0.4-2,1.1-2.4,2.2
		c-0.3,0.3-0.5,0.5-0.8,0.8c-0.3,0.3-0.5,0.5-0.8,0.8c-0.3,0.3-0.5,0.5-0.8,0.8c-0.3,0.3-0.5,0.5-0.8,0.8c-0.3,0.3-0.5,0.5-0.8,0.8
		c-0.3,0.3-0.5,0.5-0.8,0.8c-0.8,0.3-1.3,0.8-1.5,1.6c-0.2,0.3-0.5,0.5-0.7,0.8c-0.3,0.3-0.5,0.5-0.8,0.8c-0.6,0.3-0.7,0.9-0.9,1.4
		c-0.7,0.3-1.2,0.8-1.4,1.6c-0.6,0.3-0.8,0.8-1,1.4c-0.7,0.4-1.2,0.9-1.2,1.7c-0.6,0.3-0.8,0.9-0.9,1.5c-0.4,0.3-0.8,0.5-0.3,1
		c0.2-0.2,0.4-0.5,0.6-0.7c0.4-0.1,0.6-0.4,0.7-0.8c0.8-0.5,1.4-1.2,1.7-2.2c0.5-0.3,0.7-0.9,0.9-1.4c0.7-0.3,1.2-0.9,1.4-1.7
		c0.6-0.3,0.9-0.8,0.9-1.4C222.3,201.5,222.6,201.3,222.8,201z M50.3,357c-1.3,2.7,0.3,4.3,2.1,5.9c-0.2-2.1-1.9-3.7-1.7-5.9
		c0.1-0.3,0.2-0.7,0.2-1c0-0.3-0.1-0.9-0.2-1c-0.7-0.1-0.5,0.5-0.6,0.9C50.1,356.3,50.3,356.7,50.3,357z M73.5,338.7
		c-12.2,4.6-19,9-20.9,13.7c4-3.8,7.9-6.8,12.4-8.9c2.9-1.3,5.8-2.7,8.6-4.1c2.4-0.1,4.4-1,6.4-2.4
		C77.7,336.9,75.5,337.6,73.5,338.7z M204.5,239.2c2.2-8.5,4.9-16.7,8.8-24.6c-3.7,3.8-8.5,16.2-9.7,24.5c-0.2,1.2-0.8,2.5,0,3.7
		C204.4,241.7,204,240.4,204.5,239.2z M158.1,309.4c-17.6,5.1-34.4,12.2-51.4,18.9c1,1.7,2.1,0.6,3,0.2c6.2-2.5,12.3-5,18.5-7.5
		c9.9-4.1,20.2-7.1,30.3-10.8c2,0,3.7-0.6,5-2.1C161.6,308.4,159.7,308.2,158.1,309.4z M333.3,194.4c-9.9-8.5-21.3-13.6-34.1-15.7
		c-6.8-1.6-13.6-1.4-20.5-1c-5.8,0.4-11.6,1.3-17,3.5c-10.4,2.9-19.5,8.3-27.7,15.2c-2.3,2-4.9,3.7-6.4,6.5
		c-5.7,5.1-9.7,11.6-12.9,18.4c-5.5,11.7-8.2,24-6.9,37.1c0.6,6.3,1.7,12.3,3.7,18.3c0.8,2.2,1.6,4.2,3.4,5.8c0.6,1,0.2,2.8,2.1,2.9
		c0.2,2.3,1.3,4.1,2.5,5.9c3.7,5.5,8.2,10.4,13.2,14.8c5,4.4,10.6,8,16.6,10.9c7.8,3.8,15.9,5.9,24.5,7.1
		c11.8,1.6,23.2,0.2,34.3-3.6c14.9-5.1,27.1-14.3,36.5-26.9c4.8-6.5,9-13.3,10.9-21.4c0.2-0.5,0.8-0.8,0.7-1.5
		c0.8-1.8,1.1-3.6,1.1-5.6c0.9-1.3,1.1-2.8,1.3-4.3c1.5-9,1.3-18-0.8-26.9C354.1,218,346.2,204.7,333.3,194.4z M82.2,336.4
		c1.5,0.3,2.8,0.1,3.8-1.3C84.7,335.4,83.2,335.1,82.2,336.4z M203.4,244.3c-0.7,1.6-1.4,3.3-0.2,5
		C203.2,247.6,203.3,245.9,203.4,244.3z M213.6,213.8c0.9-0.8,2-1.6,1.8-3.3C214,211.3,213.6,212.4,213.6,213.8z M202,256.3
		c0.9-1.9,0.8-3.2,0.3-4.7C201.5,253,201.8,254.2,202,256.3z M52.4,352.6c-0.2-0.1-0.4-0.3-0.4-0.3c-0.3,0.3-0.7,0.7-0.9,1.1
		c-0.1,0.2,0.1,0.7,0.6,0.4C52.1,353.5,52.4,353.2,52.4,352.6z"/>
	<path class="st2" d="M367.2,261.1c3.2-27.6-4.8-51.3-24.8-70.7c-4.1-4-8.9-7.2-13.7-10.4c1.1-0.9,0.9-2.1,0.6-3.2
		c-3.9-16.7-7.7-33.4-12.2-49.9c-3.4-12.6-7.2-25.1-11.5-37.4c-3.6-10.3-7.3-20.5-12.5-30.1c-0.2-0.3-0.4-0.7-0.5-1
		c-1.1-2.4-1-2.7,1.3-3.9c2-0.9,4-1.7,6-2.6c11.2-5.1,22.4-10.2,33.5-15.3c4.8-2.2,6-1.5,6.7,3.9c1,7.1,1.2,14.2,1.8,21.4
		c0.6,7.6,1.1,15.3,2,22.9c0.6,5.6,1,11.2,1.7,16.8c0.9,7.1,1.5,14.2,2.5,21.3c1.3,8.6,2.8,17.1,4.4,25.6
		c2.1,11.4,4.5,22.8,7.1,34.1c5.7,25.1,13,49.7,19.9,74.5C375.5,258.8,371.5,260.5,367.2,261.1z M317.9,50.5c0.6,0,1.2-0.1,1.5-0.8
		c0.6-0.1,1.2-0.1,1.5-0.8c0.6,0,1.2-0.1,1.5-0.8c0.6,0,1.2-0.1,1.5-0.8c0.6,0,1.2-0.1,1.5-0.8c0.6,0,1.2-0.1,1.5-0.8
		c0.3-0.2,1,0.3,0.8-0.5c0-0.1-0.6,0.2-0.7,0.5c-0.6,0-1.2,0.1-1.5,0.8c-0.6,0-1.2,0.1-1.5,0.8c-0.6,0-1.2,0.1-1.5,0.8
		c-0.6,0-1.2,0.1-1.5,0.8c-0.6,0-1.2,0.1-1.5,0.8C318.8,49.9,318.2,49.9,317.9,50.5c-0.2,0.2-1-0.3-0.8,0.5
		C317.2,51.2,317.7,50.9,317.9,50.5z M313.4,52.3c-0.1,0-0.2,0.1-0.3,0.1c0,0.1,0.1,0.3,0.1,0.3c0.1,0,0.2,0,0.3-0.1
		C313.5,52.5,313.5,52.4,313.4,52.3z"/>
	<path class="st3" d="M74,363.5c4.8-1.7,9.3-4.1,13.8-6.6c3.8-2.1,7.6-4.2,11.5-6c5.2-2.4,9.9-5.9,15.3-7.8c0.5,2.1,2.5,1.9,4,2.2
		c3.2,0.6,6.5,0.3,9.8,0.1c-0.9,6.2-2.1,12.2-3.9,18.2c-0.6,1.9-1.3,3.9-1.3,5.9c-1.6,4.9-3.3,9.7-3.1,14.9
		c-1.8,2.7-1.7,5.8-2.1,8.8c-1,9.1-1.8,18.2-2.5,27.4c-1,12.3-2.1,24.6-2.5,37c-0.1,3.3-0.5,6.6-0.8,9.9c-0.2,2.3-0.7,4.6-3,5.8
		c-3,0.2-6,0.2-8.9-0.8c-2.7-1.6-3.7-4.1-3.4-7.2c0.1-1,0-2.1,0.2-3.1c1.5-7.7,0.5-15.2-0.5-22.9c-0.6-4.9-0.6-10-0.4-15
		c0.4-9.6,0.9-19.2,0.7-28.8c-0.1-6.3,0.6-12.5,1.4-18.7c0.1-1.1,0-2.2,0-3.6c-1.7,0.7-2.3,2-3,3.1c-4.9,7.1-8.8,14.7-12.9,22.2
		c-8.9,16.1-15.3,33.2-22.9,49.9c-1.9,4.2-3.7,8.5-5.7,12.6c-0.9,1.8-1.4,3.9-3.7,4.6c-3.1-1-6.1-2.2-9-3.5
		c-1.6-2.5-1.4-5.1-0.6-7.8c4.1-14.8,8.9-29.4,14.7-43.6c5.7-14.1,12.5-27.8,17.7-42.1c0.5-1.3,1.8-2.6,1-4.2c0,0,0,0.1,0,0.1
		c0.4,0.1,0.7,0,0.7-0.4C74.6,364,74.3,363.8,74,363.5z"/>
	<path class="st0" d="M225.6,193.3c-0.1,1-0.8,1.6-1.4,2.2c-11.5,11.6-18.7,25.5-22.4,41.3c-0.2,0.6-0.2,1.3-0.8,1.7
		c-1.5-5-2.1-10.2-3-15.4c-2.6-14.3-5.1-28.6-7.5-43c-2.3-14.1-4.5-28.2-6.5-42.3c-1.7-11.6-2.9-23.3-4.7-34.9
		c-1.8-11.5-2.7-23-3.9-34.6c-1.1-11.3-1.6-22.7-1.5-34.1c0-3.1,0.4-6.1,1-9.1c0.5-2.3,2.2-3.1,4-1.5c1.6,1.3,2.6,3.1,3.5,5
		c4,7.9,6.7,16.3,9.3,24.7c11.6,37.6,20.2,76,28.5,114.5C222.1,176.3,223.8,184.8,225.6,193.3z M179.6,77.5c-0.1,1.3,0,2.4,1.3,3.6
		c0-1.4,0.3-2.6-0.7-3.6c0-1.3,0.5-2.8-0.9-3.8c0.5-2.7-0.3-5.3-0.4-7.9c-0.2-6.1-0.6-12.2-1.2-18.3c-0.4-4.3,0.3-8.4,0.3-12.5
		c0-0.9,0.2-1.8,1.4-2c2.9,5,4.5,10.6,6.4,16c0.3,1.4,0.5,2.7,1.9,3.8c0.1-1.6-0.5-2.6-0.8-3.6c-0.6-1.8-1.3-3.5-1.9-5.3
		c-1.2-4-2.5-8-5.1-11.4c-2.3-0.9-2.6-0.6-3.1,1.7c-1,5.6-0.2,11.1,0.1,16.7c0.1,2,0,4.1,0.2,6.1c0.5,5.5,1.1,11,1.7,16.6
		C178.8,74.9,179.4,76.2,179.6,77.5z"/>
	<path class="st4" d="M490.3,472.3c-2.8-4.7-2.5-9.8-2.2-14.9c0.3-6.4,1-12.7,1.4-19.1c0.5-7.4,1.1-14.8,0.8-22.2
		c-0.3-9.8-2.1-19.3-5-28.5c-0.3-0.9-0.4-2.1-1.7-2.6c-1.7,3.7-1.9,7.8-2.5,11.7c-2.1,13.1-2.9,26.4-5.4,39.4
		c-2.1,10.8-4.6,21.5-6.9,32.2c-0.4,2-1.1,4-3,5.2c-3.1,0.8-5.8-0.4-8.4-1.8c-1-2.4-1-4.9-0.7-7.5c1-8.6,2.1-17.2,2.9-25.8
		c1.4-15.5,2.7-31,5.1-46.4c1.2-7.4,2.1-15,1.5-22.5c-0.6-8.3-0.1-16.6-1.3-24.9c-0.2-1.3-0.1-2.6-0.1-3.8
		c5.5,1.4,11.1,2.3,16.9,2.7c8.1,0.4,16-0.1,23.8-1.9c0.2,0.7,0.7,1.5,0.6,2.2c-1.3,11.2,0,22.6-0.7,33.8c-0.6,9.7,0,19.5-0.7,29.2
		c-0.7,9.8-0.8,19.7-1.5,29.5c-0.7,8.9-1.1,17.8-2.9,26.6c-0.8,3.7-1.7,7.2-4,10.3C494,474.4,492.1,473.6,490.3,472.3z"/>
	<path class="st5" d="M419.2,260.9c0.3-0.5,0.7-1,1-1.6c3.6-4.8,5.9-10.2,7.2-16.1c0.6-1.1,2.2-0.5,2.8-1.7
		c3.8,0.5,7.6,1.1,11.4,1.6c0.4,0.5,1,0.7,1.6,0.4l0.4,0.1c6.9,2,14,2.1,21.1,3.3c0.9,0.9,2.1,0.8,3.2,1.1
		c6.2,1.4,12.4,1.6,18.3-1.2c2.5-1.3,5-1.3,7.6-0.5c3.4,1,6.8,2,10.2,3c4.3,2.6,7.8,6.1,10.9,10.1c3.5,4.6,7.2,9,10,14
		c2.5,4.6,5.1,9.2,4.5,14.8c-4.5,2.8-9.6,3.7-14.7,4.7c-1.2,0.2-2.5,0-3.6-0.7c-0.8-2.1-1.5-4.1-2.3-6.2c-1.3,5-0.8,9.9-1,14.8
		l0.1,0c-0.2,0.2-0.4,0.4-0.6,0.6c-4,2-8.1,1.9-12.3,1.1c-3.6-0.7-7-2.4-10.8-2.5c-2.9-0.1-4.9-1.2-6.4-3.9
		c-2.2-3.9-4.5-7.8-9.1-9.4c1.9-2,1-4.2,0.2-6.1c-1.8-4.3-2.7-8.7-3.4-13.2c-0.5-3.5-2.7-5.5-6.1-5.7c-3-0.2-6.1-0.4-9,0.9
		c-0.9-0.1-1.8-0.2-2.6-0.2c-1.1,0-2-0.3-2.4-1.5c-0.8-2.6-2.9-3.3-5.2-3.7c-2.4-0.3-5-1-7.1,0.3c-2.5,1.6-5.3,2.5-7.5,4.5
		C423.5,261,421.1,262.4,419.2,260.9z"/>
	<path class="st5" d="M166.2,304.6c-2.7,0.8-5.5,1.5-8.2,2.3c-3.3-3.6-4.6-8.2-6.1-12.6c-0.5-1.6-1-2.8-3-2.8
		c-1.9,0-3.6,0.1-4.3,2.3c-1.8,6.1-3.8,12.1-3.6,18.6c0,0,0-0.1,0-0.1c-0.3,0.2-0.5,0.4-0.8,0.7c-2,1.5-4.5,1.8-6.8,2.5
		c-8.1,2.5-16.2,5-23.9,8.6c-0.5-0.4-1.1-0.9-0.8-1.6c1.6-3.3,1.4-7.2,4-10.2c1-1.1,1.4-2.7,2-4.1c3-7.7,4.3-15.7,4.5-23.8
		c0.4-13.5,0.7-27-1.4-40.4c-0.3-2-1.1-3.9-0.9-6c3.4-0.1,6.7-0.2,10.1-0.4c0.2,0.4,0.6,0.9,0.6,1.3c-0.1,3.9,2.3,5.9,5.5,7.3
		c3.9,1.6,7.4,0.2,10.8-1.5c8.7,1.3,15.6,8.6,16.2,17.3c0.4,5.5,1.4,10.9,2.6,16.2c1.5,6.2,5.3,11.3,9.9,15.7
		c1.4,1.3,1.7,2.4,0.4,3.8C170.5,299.6,168.6,302.3,166.2,304.6z"/>
	<path class="st6" d="M430.2,241.6c-0.6,1.2-2.2,0.6-2.8,1.7c-1.4-2-3.6-2.9-5.6-4c-3.3-1.7-6.9-2.7-10-4.8c-0.1-0.4,0-1-0.8-0.8
		l0.1,0c0.5-1.9-0.7-3.4-1.2-5.1c-5.1-14.5-10.3-28.9-15.4-43.4c-0.6-1.6-1-3.1-1.3-4.8c-0.5-3.6,0.2-5.4,3.6-6.6
		c8-2.8,15.6-6.4,23-10.4c3.1-1.7,4.3-1.2,5.3,2.3c1.2,4.3,2.2,8.7,3.3,13c5.1,19.7,12.8,38.3,22,56.3c-4.7,1.4-9.5,2.7-14.2,4.2
		C434.1,239.9,431.9,240.2,430.2,241.6z M405.4,175.1c-0.6,0-1.2,0.1-1.5,0.8c-1.1,0.1-1.8,0.7-2.2,1.6c-0.7,0.2-0.9,0.8-0.9,1.5
		c-1,0.6-1.3,1.5-1.4,2.6c-0.3,5,1.6,9.2,4.3,13.2c-1.6-5.1-4.7-9.9-2.8-15.6c0.7-0.3,0.9-0.8,0.9-1.5c1.1,0,1.8-0.7,2.3-1.5
		c0.6,0,1.2-0.1,1.5-0.8c0.6,0,1.2-0.2,1.5-0.8c1.1,0,2.1-0.2,2.9-1.6c-1.5,0-2.4,0.4-3.2,1.3C406.4,174.4,405.8,174.5,405.4,175.1z
		 M412.6,172.3c3.5-0.5,5.1-1.1,6.8-2.8c-2.3,1-5,0.9-7,2.6c-0.4,0-0.9,0-1.2,0.5c0,0,0.1,0.2,0.2,0.2
		C412,173,412.4,172.8,412.6,172.3z M404.3,196.1c-0.2,2.1,0.9,3.4,1.8,5.3C406.4,199,405.5,197.7,404.3,196.1z"/>
	<path class="st7" d="M419.2,260.9c1.9,1.5,4.3,0.1,6.3,1.2c0.9,2.7,3.1,3.9,5.6,4.7c5.6,1.7,11,0.4,16.5-0.5c2.1-0.3,2.4-2,2.6-3.7
		c2.9-1.3,6-1.1,9-0.9c3.4,0.2,5.7,2.2,6.1,5.7c0.6,4.6,1.5,9,3.4,13.2c0.8,1.9,1.7,4.1-0.2,6.1c-1.5,0-3.1,0.1-4.6,0.1
		c-1.9,0-3.8,0.1-5.6,1c-1.7,0.8-2.1,2.6-0.6,3.6c1.6,1.1,1.7,2.3,1.8,3.9c0.2,2.7,0.8,3.2,3.6,3.4c0.6,0,1.3-0.1,1.9,0
		c4.2,0.9,8.3,1.9,9.1,7.2c0.3,1.8,1.2,3.3,3,4.2c0,0.3,0,0.5,0.1,0.8c0.6,5,0.3,5.4-4.9,5.5c-4.9,0-9.7,0.1-14.6,0.2
		c-5.2-0.2-10.3-1-15.4-2.1c-2-0.5-3.3-1.8-4.4-3.4c-2.4-3.4-4.4-7.2-6.3-10.9c-2.2-4.1-3.8-8.6-6.6-12.4c-0.1-1.4-0.8-2.7-1.4-3.9
		c-2.6-5.1-5.1-10.3-7.7-15.4c-0.5-1-1.1-2-1.5-3.1c-1-2.8-0.5-3.4,2.5-3.8C417.7,261.4,418.4,261.1,419.2,260.9z"/>
	<path class="st8" d="M296.4,169.1c-3.6,0-7.1,0-10.7-0.2c-9-0.3-17.6,1.7-26.2,4c-0.3-4-1.9-7.7-2.8-11.5c-0.5-2.1-0.6-4,0.3-6
		c7.2-15.7,14.4-31.4,21.6-47c0.6-1.2,0.9-2.7,2.4-3.6c1.5,3.3,2,6.9,2.8,10.3c2.3,9.4,4.4,18.9,6.6,28.3
		C292.4,151.9,294.4,160.5,296.4,169.1z M274.1,132.2c-0.7,0.3-0.8,0.9-0.8,1.5c-1.9,1.6-2.8,3.7-3.1,6.1c-0.7,0.3-0.8,0.9-0.8,1.6
		c-0.7,0.3-0.8,0.9-0.8,1.5c-0.7,0.3-0.8,0.9-0.8,1.5c-0.3,0.3-0.5,0.5-0.8,0.8c-0.6,0.3-0.7,0.9-0.8,1.5c-0.3,0.3-1,0.4-0.3,1
		c0.1-0.3,0.2-0.7,0.3-1c0.7-0.3,0.8-0.9,0.8-1.5c0.3-0.3,0.5-0.5,0.8-0.8c0.6-0.3,0.7-0.9,0.8-1.5c0.6-0.3,0.7-0.9,0.8-1.5
		c0.6-0.3,0.7-0.9,0.8-1.6c1.9-1.6,2.8-3.7,3.1-6.1C273.9,133.4,274,132.8,274.1,132.2c0.3-0.3,1-0.5,0.2-1
		C274.2,131.5,274.2,131.8,274.1,132.2z M275.6,128.3c0.7-0.3,0.7-0.9,0.8-1.5c0.3-0.3,1-0.4,0.3-1c-0.1,0.3-0.2,0.7-0.3,1
		C275.7,127.1,275.6,127.7,275.6,128.3c-0.3,0.3-1,0.5-0.2,1C275.4,129,275.5,128.6,275.6,128.3z M277.9,123c-0.3,0.3-1,0.4-0.3,1
		C277.7,123.6,277.8,123.3,277.9,123c0.3-0.1,0.4-0.3,0.2-0.3C278,122.6,278,122.8,277.9,123z"/>
	<path class="st9" d="M70.2,277.7c2.1-7.6,3.7-15.4,8-22.3c2.4,0.1,3.7-1.8,4.8-3.4c2.2-3.1,5-5.5,7.6-8.1c2.5-2.4,6.7-3,9.2-1.3
		c2,1.3,3.9,3,4.7,5.4c1.4,4.1,2.5,8.5,1.6,12.8c-0.8,3.5,0.1,6.6,0.4,9.8c0.2,2.3,0.8,4.6,0.5,6.8c-0.8,6-0.7,12-0.7,18
		c0,4.1-0.6,8.1-1.8,12.1c-0.7,2.4-1.5,4.9-1.3,7.5c0.2,1.9-0.5,3.5-1.3,5.2c-2,4.4-4.8,4.9-8.1,1.3c0.4-1,0.3-2.1,1-3
		c0.4-0.3,0.6-0.7,0.5-1.2c0.1-1.1,0.3-2.3,0.4-3.4c3.2-2.9,3-6-0.7-9.3c-0.8-3.5-0.2-7.2-0.8-10.8c1.9,0.3,2.1,2,2.9,3.3
		c0.7,1.1,1.7,1.5,2.9,1.2c1.2-0.3,1.6-1.2,1.6-2.3c0-1.5,0.1-3-0.4-4.6c-0.7-2.1-0.7-4.4-0.2-6.4c0.7-3,0.6-5.7-0.1-8.7
		c-1-4.4-3.4-7.1-7.2-7.8c-3.5-0.7-8,1.3-9.7,4.7c-2.1,4.3-3.3,8.8-3.2,13.6c0.1,2,0.8,3.8,3.2,4.1c-0.1,1.5,0.1,3.1-0.6,4.5
		c-4,0.1-5.5-2.9-6.7-5.9c-1.3-3.5-3.4-6.6-4.5-10.2C72.1,278.2,71.3,277.7,70.2,277.7z"/>
	<path class="st5" d="M457.8,316.5c4.9-0.1,9.7-0.1,14.6-0.2c5.1,0,5.5-0.5,4.9-5.5c0-0.3,0-0.5-0.1-0.8c6.6,2.6,13.5,4.5,20.5,5.8
		c2.6,0.5,5.4-0.3,7.9,1c0,8.2,0,16.4,0,24.6c-7.9,1.8-15.8,2.3-23.8,1.9c-5.8-0.3-11.4-1.2-16.9-2.7c-0.4-0.5-0.9-0.9-1.1-1.5
		C461,331.8,458.3,324.5,457.8,316.5z"/>
	<path class="st10" d="M505.5,316.9c-2.5-1.3-5.3-0.5-7.9-1c-7-1.3-13.8-3.3-20.5-5.8c-1.7-0.9-2.7-2.4-3-4.2
		c-0.8-5.3-4.9-6.3-9.1-7.2c-0.6-0.1-1.3,0-1.9,0c-2.7-0.1-3.4-0.7-3.6-3.4c-0.1-1.6-0.2-2.8-1.8-3.9c-1.5-1-1.1-2.8,0.6-3.6
		c1.7-0.9,3.7-1,5.6-1c1.5,0,3.1-0.1,4.6-0.1c4.6,1.6,6.9,5.6,9.1,9.4c1.5,2.7,3.5,3.8,6.4,3.9c3.7,0.1,7.1,1.8,10.8,2.5
		c4.3,0.8,8.3,0.9,12.3-1.1c0.2-0.2,0.4-0.4,0.6-0.6c0,0-0.1,0-0.1,0c3.1-2.1,2.9-5.4,3.3-8.5c1.1,0.8,2.4,1,3.6,0.7
		c5.1-1,10.2-1.9,14.7-4.7c0.9,1,0.7,2,0.5,3.2c-1.2,7-4.4,12.8-8.3,18.7c-3.6,5.4-8,7.5-14.1,6.7
		C506.8,316.8,506.1,316.9,505.5,316.9z"/>
	<path class="st0" d="M504,249.4c-3.4-1-6.8-2-10.2-3c-2.6-0.8-5.2-0.9-7.6,0.5c-0.9-1.4-1.9-2.7-2.6-4.2c-2.1-4.4-3.5-9.2-6.1-13.4
		c-0.7-1.1,1.1-0.7,1.1-1.4c7.2-1.5,14.5-2.9,21.7-4.4c6.6-1.3,13.3-1.9,20-2.6c2.6-0.3,5.1,0.2,7.6,0.6c5.2,0.8,6.4,4,3.1,8
		c-2.7,3.3-5.9,6-9.3,8.5C516.1,242.1,510,245.6,504,249.4z"/>
	<path class="st10" d="M411.8,234.5c3.1,2,6.8,3,10,4.8c2,1.1,4.2,2,5.6,4c-1.3,5.8-3.6,11.3-7.2,16.1c-3.3-0.2-6.1-1.7-8.9-3.1
		c-1.1-0.5-2-1.6-3.4-1.6c-0.3-0.3-0.6-0.6-0.9-0.8c-1.2-1.9-2.7-3.6-5.1-3.9c0.2-1.5-0.8-2.4-1.7-3.3c-7.6-7.8-13.2-16.9-17.1-27.1
		c-0.8-2-1.5-4.1-1.9-6.2c-0.5-2.4-1.4-4.4-3.3-5.9c-3.7-3-5-7-4.7-11.6c0.1-2.4,0-4.9,0.1-7.3c0-0.5,0-1.1,0.6-1.3
		c0.8-0.3,1.2,0.2,1.5,0.8c0.4,0.8,0.7,1.6,1,2.5c0.3,1,0.6,2.1,1.5,2.6c3.3,1.9,4.3,5.3,5.7,8.4c2,4.2,3.6,8.5,5.7,12.6
		c3,5.8,7.4,10.5,12.6,14.3c2.8,2.1,5.5,4.6,9.2,5.3c0,0-0.1,0-0.1,0C411.1,234.2,411.4,234.4,411.8,234.5z"/>
	<path class="st10" d="M478.6,227.8c-0.1,0.7-1.8,0.3-1.1,1.4c2.7,4.2,4,9,6.1,13.4c0.7,1.5,1.7,2.8,2.6,4.2
		c-6,2.8-12.1,2.6-18.3,1.2c-1.1-0.2-2.3-0.2-3.2-1.1c-2-3-2.7-6.5-3-10c0-0.3,0-0.6,0-0.9c0-1.3,0-2.5,0-3.8
		c0.9-1.4,0.6-2.4-1.1-2.8c-1.4-0.4-2.8-0.5-4-1.2c-0.9-0.5-1.8-1-2.2-2.1c-0.4-0.9-0.3-7.3,0.3-8c1.3-1.8,2.1-3.8,2.4-6
		c0.3-2,2-3.3,2.5-5.1c3.4,0.8,6.4,2.7,10.2,2.4c2.7-0.2,4,1.8,3.1,4.3c-0.8,2.2-0.4,2.8,1.9,3.2c2.4,0.4,2.9,2.3,1.3,4.2
		c-0.4,0.5-1,0.8-1.5,1.2c-1.1,0.8-2.7,1.6-2.4,3.1c0.3,1.9,2.5,1.3,3.8,2c0.4,0.2,1.2-0.2,1.8-0.3
		C478,227.4,478.3,227.6,478.6,227.8z"/>
	<path class="st11" d="M117.1,237.9c-0.3,2.1,0.6,4,0.9,6c2,13.4,1.7,27,1.4,40.4c-0.2,8.1-1.5,16.2-4.5,23.8c-0.6,1.4-1,3-2,4.1
		c-2.5,3-2.4,6.9-4,10.2c-0.3,0.6,0.3,1.2,0.8,1.6c-3.2,1.7-7,2-10.1,4c-2.7,0.7-5.1-0.8-7.7-1.2c-0.9-3.2-0.9-3.4,1.5-5.2
		c0.7,3.7,1.7,4.7,4.4,4.5c5.1-0.4,8.4-3.8,8.7-8.9c0-1,0-2.1,0.3-3c1.9-8.1,2.9-16.3,2.8-24.6c0-1,0-2,0.2-3
		c1.2-6.6,1.4-13.4,2-20.1c0.3-3.7,0.1-7.4,0.1-11.1c-0.1-6-1.2-11.6-5-16.5c-0.6-0.8-1.1-1.7-1.1-2.8
		C109.4,236.7,113.2,237.3,117.1,237.9z"/>
	<path class="st4" d="M158.6,226.4c2,1.4,2.4,2.2,1.1,3.4c-2.2,2.1-2.6,4.5-2.7,7.3c-0.1,3.2-2.4,4.6-5.5,3.7
		c-2.2-0.6-4.1-2.1-6.6-1.8c-0.7-1.2-1.3-2.1-2.9-2.5c-3.2-0.7-3.3-1.2-3.5-4.8c-0.1-2.4,0.8-4.8,0-7.1c0.8-1.5,1.6-2.9,2.3-4.4
		c2.2-4.8,0.8-7.2-4.3-7.7c-1.8-2.7-2-3.3-0.2-5.3c1.8-2,3-4,3.2-6.7c0.2-2.4,1.4-3.3,3.8-3.5c2.8-0.2,5.7-0.2,8,1.8
		c1.5,1.3,3,1.2,4.6,0.2c1-0.6,2-1.2,3-1.7c2.7-1.6,5.5-1.3,7.9,0.5c1.9,1.4,2.3,3.6,1.7,5.9c-0.8,3.1-2.6,5.2-5.8,6c-1,0.2-2,0-3,0
		c-1.5-0.7-2.9-1.5-4.4-2.2c-4.4-1.8-8,0.4-8.1,5.1c0,1.3,0,2.6-0.6,3.7c-0.9,1.8-0.8,3.7-0.7,5.6c0.2,3.9,1.4,4.9,5.3,4.9
		C153.6,226.9,156,225.9,158.6,226.4z"/>
	<path class="st7" d="M477.7,227.1c-0.6,0.1-1.4,0.6-1.8,0.3c-1.3-0.7-3.5-0.2-3.8-2c-0.3-1.6,1.3-2.3,2.4-3.1
		c0.5-0.4,1.1-0.7,1.5-1.2c1.6-1.8,1.1-3.7-1.3-4.2c-2.2-0.4-2.7-1-1.9-3.2c1-2.5-0.4-4.5-3.1-4.3c-3.8,0.3-6.8-1.7-10.2-2.4
		c-4.9-4.1-5.3-9.3-1.1-14c1.1-1.2,2.2-2,3.4-0.3c1.8,2.5,3.7,1.9,6,0.6c5-2.7,9.2-1.2,11,3.6c0.8,2.2,2.5,3,4.5,3.7
		c4.1,1.4,5.1,2.7,5.1,7c0,2,0.1,3.6,2,5c2.5,1.8,2.3,4,0,6.1c-0.7,0.6-1.5,1.1-2.3,1.3C483.9,221.1,480.5,223.6,477.7,227.1z"/>
	<path class="st6" d="M105.6,236.2c0.1,1.1,0.5,2,1.1,2.8c3.9,4.8,5,10.5,5,16.5c0,3.7,0.3,7.4-0.1,11.1c-0.6,6.7-0.8,13.4-2,20.1
		c-0.2,1-0.2,2-0.2,3c0,8.3-0.9,16.5-2.8,24.6c-0.2,1-0.2,2-0.3,3c-0.3,5.1-3.6,8.6-8.7,8.9c-2.7,0.2-3.7-0.8-4.4-4.5
		c0,0,0.3-0.2,0.3-0.2l0.3,0c3.3,3.5,6.1,3.1,8.1-1.3c0.7-1.6,1.4-3.3,1.3-5.2c-0.2-2.6,0.5-5.1,1.3-7.5c1.2-3.9,1.8-7.9,1.8-12.1
		c0-6-0.1-12,0.7-18c0.3-2.2-0.2-4.6-0.5-6.8c-0.3-3.2-1.2-6.4-0.4-9.8c0.9-4.2-0.2-8.6-1.6-12.8c-0.8-2.4-2.7-4.1-4.7-5.4
		c-2.5-1.6-6.7-1.1-9.2,1.3c-2.7,2.5-5.5,5-7.6,8.1c-1.1,1.6-2.3,3.5-4.8,3.4c3.1-5.8,6.6-11.3,11.7-15.5
		C94.3,236.1,99.7,234.9,105.6,236.2z"/>
	<path class="st12" d="M91.8,326.9c2.6,0.4,5,1.9,7.7,1.2c0.5,1.1,1.7,1,2.6,1.4c1,0.4,1.8,1.1,1.7,2.3c-0.1,1.2-0.9,2-2.1,2.5
		c-1,0.4-2,0.2-3,0.1c-3.5-0.4-7-0.9-10.5-1.7c-1.6-0.4-3.3-0.3-4.9-0.4c-8.4-10.3-14-21.7-13.8-35.3c2.7,0.1,5.5,0.1,8.2,0.2
		c1.5,0.9,3.1,0.8,4.7,0.5c0,0.6,0.1,1.3-0.1,1.9c-1.5,8-0.8,15.6,3.1,22.8C87,325,88.8,326.7,91.8,326.9z"/>
	<path class="st13" d="M464.8,478.4c0.8,2.7,1.4,5.5,1.5,8.3c0.2,4.4-1.3,6.1-5.7,6.5c-2.3,0.2-4.6,0.2-6.9,0.2
		c-6.4,0-12.8,0.5-19.1-0.7c-0.5-0.1-1-0.1-1.5-0.3c-1.3-0.4-2.4-1.1-2.8-2.4c-0.4-1.5,0.8-2.4,1.7-3.2c4.2-3.1,9-4.7,13.9-6.3
		c3-1,6.1-1.9,9.1-2.9C458.1,478.9,461.4,478.6,464.8,478.4z"/>
	<path class="st7" d="M110.3,477.8c2.3-0.5,4.3,0.5,6.1,1.7c3.8,2.4,7.5,4.9,11.2,7.4c1.1,0.7,2.7,1.4,2.2,3.2
		c-0.6,1.8-2.3,1.7-3.9,1.8c-1.1,0-2.3-0.1-3.4-0.2c-7-0.5-14-0.5-21-0.5c-3.1,0-4.6-1.9-4.1-5c0.4-2.2,1.6-4,2.9-5.7
		c2.9,3.7,4.9,3.8,7.9,0.2C108.9,479.7,109.9,479,110.3,477.8z"/>
	<path class="st7" d="M49.3,473.2c-0.6,6.7-3.7,12.1-8.3,16.8c-2.1,2.2-5.1,2.5-7.4,1.1c-2.2-1.3-3.1-3.6-2.3-6.7
		c1.2-4.5,4.1-7.9,7.2-11.2c0.7-0.7,1.3-1.7,2.5-1.7c0.6,1.5,1.8,1.4,3.1,1.5C45.8,473.3,47.5,472.6,49.3,473.2z"/>
	<path class="st12" d="M138.5,224.6c0.8,2.4-0.1,4.8,0,7.1c0.2,3.6,0.2,4.1,3.5,4.8c1.6,0.4,2.2,1.3,2.9,2.5
		c-1.4,1.7-0.5,3.8-0.8,5.6c-3.4,1.7-6.9,3.1-10.8,1.5c-3.2-1.4-5.6-3.4-5.5-7.3c0-0.4-0.4-0.9-0.6-1.3c0.4-2.3,2.1-3.7,3.6-5.3
		c2.3-2.4,4.6-4.8,5-8.4C136.6,224.4,137.5,224.7,138.5,224.6z"/>
	<path class="st12" d="M158.6,226.4c-2.6-0.4-5,0.5-7.6,0.5c-3.8,0-5-1-5.3-4.9c-0.1-1.9-0.3-3.8,0.7-5.6c0.6-1.2,0.6-2.5,0.6-3.7
		c0.1-4.7,3.6-7,8.1-5.1c1.5,0.6,3,1.4,4.4,2.2c-2.3,2.7-3.1,5.4-0.9,8.6c0.8,1.3,1.4,2.6,0,4.1C157.5,223.6,159.1,225,158.6,226.4z
		"/>
	<path class="st0" d="M401.9,249.9c2.5,0.3,3.9,1.9,5.1,3.9c-13.5,4.4-27,8.8-40.5,13.1c0.2-1.9,0.5-3.8,0.7-5.7
		c4.3-0.6,8.3-2.4,12.3-4.1c3.4-0.6,6.5-2,9.8-3C393.5,252.6,397.7,251.3,401.9,249.9z"/>
	<path class="st13" d="M496.9,479.3c1.9,2,2.7,4.6,3.2,7.2c0.5,2.7-0.8,4.7-3.4,5c-2.5,0.3-5.1,0.6-7.6,0.1c-2.8-0.5-3.8-2.2-3-5
		c0.8-2.9,2.1-5.4,4.4-7.4C492.6,479.2,494.7,479.3,496.9,479.3z"/>
	<path class="st0" d="M461.7,232.3c0,1.3,0,2.5,0,3.8c-6.2,2.2-12.4,4.3-18.6,6.5c-0.5,0.2-1,0.4-1.5,0.6c-3.8-0.5-7.6-1.1-11.4-1.6
		c1.8-1.3,3.9-1.6,6-2.2c4.7-1.5,9.5-2.8,14.2-4.2C454.1,234.2,457.9,233.3,461.7,232.3z"/>
	<path class="st6" d="M82.4,297.5c-1.6,0.3-3.2,0.5-4.7-0.5c0.1-0.7,0-1.3-0.4-1.8c-2.2-2.5-4.3-4.9-6.5-7.3
		c-0.8-0.8-1.5-1.8-2.7-1.9c0.4-2.9,0.6-5.8,2.1-8.4c1.1,0,1.9,0.5,2.3,1.7c1.1,3.5,3.2,6.7,4.5,10.2c1.1,3,2.7,6,6.7,5.9
		C83.9,296.4,82.8,296.8,82.4,297.5z"/>
	<path class="st12" d="M110.3,477.8c-0.4,1.1-1.4,1.8-2.1,2.7c-3,3.6-4.9,3.5-7.9-0.2c-1.4-2.6,0.1-5.2,0.1-7.8c2.9,1,5.9,1,8.9,0.8
		C109.7,474.8,110.5,476.2,110.3,477.8z"/>
	<path class="st12" d="M49.3,473.2c-1.7-0.6-3.5,0.1-5.2-0.1c-1.3-0.1-2.6,0-3.1-1.5c0.1-3.1,0.2-6.2,0.3-9.3c2.9,1.3,5.9,2.6,9,3.5
		C49.7,468.3,49.2,470.7,49.3,473.2z"/>
	<path class="st11" d="M68.1,286.1c1.3,0.1,2,1.1,2.7,1.9c2.2,2.4,4.3,4.9,6.5,7.3c0.4,0.5,0.5,1.1,0.4,1.8
		c-2.7-0.1-5.5-0.1-8.2-0.2C66.2,293.7,67.2,289.9,68.1,286.1z"/>
	<path class="st10" d="M138.5,224.6c-1,0.1-1.9-0.2-2.7-0.7c0.1-2.6,0.5-5.2-0.2-7.8c-0.4-1.3,0.4-2.4,0.9-3.6
		c5.2,0.5,6.5,2.9,4.3,7.7C140.1,221.7,139.2,223.1,138.5,224.6z"/>
	<path class="st12" d="M464.8,478.4c-3.3,0.2-6.6,0.5-9.8-0.8c-0.1-2.3,0.2-4.5,2.4-5.9c2.6,1.4,5.3,2.7,8.4,1.8
		C465.7,475.2,465.3,476.8,464.8,478.4z"/>
	<path class="st12" d="M496.9,479.3c-2.1,0-4.3,0-6.4-0.1c-0.5-2.3-0.4-4.6-0.2-6.9c1.8,1.3,3.7,2.1,5.9,0.8
		C497.5,475,497,477.2,496.9,479.3z"/>
	<path class="st12" d="M166.2,304.6c2.4-2.3,4.2-5,6.9-6.9c1.1,0.8,2.3,1.5,2.6,3.1C172.8,302.6,169.9,304.5,166.2,304.6z"/>
	<path class="st3" d="M170.7,171.1c3.1-1.6,6.3-2,9.7-1.9C177.4,170.8,174.2,171.7,170.7,171.1z"/>
	<path class="st9" d="M161.4,91c-3.4,1.3-6.9,1.6-11.2,2.3c1.7-2.9,3.9-1.8,5.5-2.1C157.5,90.8,159.4,90.2,161.4,91z"/>
	<path class="st9" d="M155.4,108.3c2.9-1.8,6.2-1.4,9.4-1.9C161.9,108.3,158.6,108.2,155.4,108.3z"/>
	<path class="st3" d="M182.6,220.4c2.3-1.5,4.9-2.2,7.6-1.7C187.9,219.9,185.5,221.1,182.6,220.4z"/>
	<path class="st9" d="M161,122.6c2.5-2.2,5.8-1,8.6-1.7C167,122.7,164,122.6,161,122.6z"/>
	<path class="st9" d="M174.7,152.6c-2.2,1.5-4.6,2.3-7.7,1.7C169.5,152.1,172.4,153.4,174.7,152.6z"/>
	<path class="st0" d="M197.6,247.4c-1.6,1.3-3.2,2.4-5.5,1.7C193.6,247.1,195.8,247.8,197.6,247.4z"/>
	<path class="st3" d="M203.2,280c0.6,0.4,0.8,0.9,0.8,1.6c-1.9,0.5-3.9,0.9-6.1,1.4C199.4,280.9,201.5,280.8,203.2,280z"/>
	<path class="st9" d="M186.7,233.5c1.9-1.4,4.1-2,6.9-1.8C191.4,233.8,188.8,232.9,186.7,233.5z"/>
	<path class="st3" d="M183.6,186.3c-2.3,1.8-4.4,1.6-6.9,2C178.8,186.3,181.1,187,183.6,186.3z"/>
	<path class="st3" d="M182.1,204.4c1.5-0.9,3.2-0.9,5.1-0.7C185.5,205,183.8,204.6,182.1,204.4z"/>
	<path class="st3" d="M169.5,137.4c-2.3-0.1-4.5,1.6-7.5,0.1c2.9-1.1,5.2-1,7.5-0.7C169.4,137,169.4,137.2,169.5,137.4z"/>
	<path class="st9" d="M200.1,263c0,0.5,0,1.1,0,1.6c-1.2,0.2-2.3,1.2-3.7,0.4C197,263.3,199,263.9,200.1,263z"/>
	<path class="st6" d="M169.5,137.4c-0.1-0.2-0.1-0.4-0.1-0.6c0.6-0.8,1.4-1,2.5-0.5C171.4,137.2,170.5,137.4,169.5,137.4z"/>
	<path class="st12" d="M366.5,266.8c13.5-4.4,27-8.8,40.5-13.1c0.3,0.3,0.6,0.6,0.9,0.8c-6.3,2.5-12.9,4.2-19.3,6.3
		c-7.4,2.4-14.8,4.8-22.3,7.2C366.4,267.7,366.4,267.3,366.5,266.8z"/>
	<path class="st12" d="M210.7,332.4c-5.7,2.5-11.2,5.4-16.9,7.3C198.9,336.4,204.6,334.1,210.7,332.4z"/>
	<path class="st9" d="M225.7,323.1c0.9,0.6,0.6,1.6,1,2.4c0.6,1.4-0.1,2.2-1.4,2.6c-2,0.6-4,1.2-6.5,1.9c0.6-2.1,2.2-1.8,3.2-2.2
		c3.6-1.3,3.7-1.2,2.9-4.8C225.2,323.1,225.4,323.1,225.7,323.1z"/>
	<path class="st12" d="M225.7,323.1c-0.3,0-0.5-0.1-0.8-0.1c-0.5-3-1-6.1-1.5-9.1c0.9,0.1,0.8,1.1,1.4,1.4
		C224.5,318,225.6,320.5,225.7,323.1z"/>
	<path class="st11" d="M212.5,331.6c1.3-0.8,2.6-1.8,4.4-1.4C215.6,331.3,214.2,331.8,212.5,331.6z"/>
	<path class="st0" d="M357.3,265.2c0,1.9-0.3,3.8-1.1,5.6c-5.9,1.5-11.5,4-17.2,6c-4,1.4-7.9,2.9-12.5,4.6c1.9,0.6,2.9-0.1,3.9-0.4
		c8.4-2.9,16.8-5.8,25.2-8.7c-1.8,8-6,14.9-10.9,21.4c-9.4,12.6-21.6,21.8-36.5,26.9c-11.1,3.8-22.5,5.1-34.3,3.6
		c-8.6-1.1-16.7-3.3-24.5-7.1c-6-2.9-11.6-6.5-16.6-10.9c-5-4.4-9.4-9.3-13.2-14.8c-1.2-1.8-2.4-3.7-2.5-5.9
		c-1.1-5.6-2.8-11-4.4-16.4c-0.2,0.1-0.5,0.1-0.7,0.2c1,4.4,2,8.9,3,13.3c-1.7-1.6-2.6-3.6-3.4-5.8c-2-5.9-3.1-12-3.7-18.3
		c-1.2-13.1,1.5-25.4,6.9-37.1c3.2-6.8,7.2-13.2,12.9-18.4c7,34.6,13.2,69.4,19,104.1c1.5,0.3,2.4-0.4,3.5-0.8
		c9.6-3.9,19.2-7.8,28.8-11.7c4.8-2,9.8-3.5,14.5-6c2.4-0.4,4.5-1.5,6.8-2.4c7.3-2.8,14.6-5.7,21.9-8.5c8-2.5,15.8-5.6,23.7-8.5
		C349.5,267.7,353.4,266.5,357.3,265.2z M325.3,282.3c-2.8,0.6-5.6,1.3-7.8,3.1C320.3,284.9,322.9,284,325.3,282.3z M304.6,291.1
		c-0.6-0.6-1.1-0.4-1.5-0.2c-0.4,0.2-1.1,0.4-0.9,1.2C303.3,292.3,304,292,304.6,291.1z M311.8,287.8c-1.6-0.1-2.5,0-2.9,1.4
		C310.2,289.4,310.9,288.8,311.8,287.8z M307.9,289.6c-0.3-0.5-0.7-0.5-1-0.4c-0.4,0.1-0.8,0.2-0.7,0.7c0.1,0.5,0.5,0.5,0.9,0.3
		C307.3,290.1,307.6,289.8,307.9,289.6z"/>
	<path class="st8" d="M293.3,288.5c-7-24.5-14-49-21-73.5c-2.8-9.8-5.6-19.6-8.5-29.4c-0.5-1.6-0.6-3.3-2.1-4.4
		c5.5-2.2,11.2-3.1,17-3.5c6.8-0.4,13.7-0.7,20.5,1c0.5,5.4,2.1,10.5,3.3,15.7c4.9,20.6,9.8,41.2,14.6,61.9
		c1.7,7.1,3.6,14.1,4.8,21.3c-7.3,2.9-14.6,5.8-21.9,8.5C297.8,287,295.7,288.1,293.3,288.5z"/>
	<path class="st2" d="M345.6,269c0-6.8-1.6-13.4-2.6-20.1c-1.5-9.7-3.3-19.3-5.1-29c-1.4-7.6-3-15.3-4.4-22.9
		c-0.2-0.9-0.1-1.8-0.2-2.7c12.9,10.2,20.8,23.6,24.5,39.5c2.1,8.9,2.3,17.9,0.8,26.9c-0.2,1.5-0.4,3-1.3,4.3
		C353.4,266.5,349.5,267.7,345.6,269z"/>
	<path class="st12" d="M207.1,299c0.5,2.8-0.8,4.9-3.3,5.7c-4.8,1.7-8.4,5.1-12.6,7.8c-3.2,2-6.5,3.5-10.4,3c-0.9-0.1-1.8-0.2-2.3-1
		c0-2.6,2-3.4,3.8-4.2c3.3-1.4,6.3-3.2,9.5-4.9c2.2-1.1,3.6-2.6,4.2-5.1c0.7-2.7,2.4-4.7,5.1-5.7c3.5-1.3,4.9-0.6,5.8,2.9
		C207,298,207.1,298.5,207.1,299z"/>
	<path class="st5" d="M133.5,333.9c-0.9,4.2-1.9,8.3-5.1,11.5c-3.3,0.2-6.5,0.4-9.8-0.1c-1.5-0.3-3.4,0-4-2.2
		c5.2-3.2,10.6-5.9,16-8.5C131.6,334.1,132.5,333.7,133.5,333.9z"/>
	<path class="st2" d="M158.4,310.1c-10,3.8-20.3,6.8-30.3,10.8c-6.1,2.5-12.3,5-18.5,7.5c-0.9,0.4-2,1.5-3-0.2
		c17-6.7,33.8-13.8,51.4-18.9C158.2,309.6,158.3,309.9,158.4,310.1z"/>
	<path class="st12" d="M355.5,272.2c-8.4,2.9-16.8,5.8-25.2,8.7c-1,0.4-2,1-3.9,0.4c4.6-1.7,8.5-3.2,12.5-4.6c5.7-2,11.3-4.5,17.2-6
		C356.3,271.4,355.7,271.7,355.5,272.2z"/>
	<path class="st11" d="M203.6,239.1c1.2-8.3,6-20.7,9.7-24.5c-3.9,7.9-6.6,16.1-8.8,24.6C204.2,239.2,203.9,239.1,203.6,239.1z"/>
	<path class="st2" d="M73.6,339.4c-2.9,1.4-5.8,2.7-8.6,4.1c-4.5,2.1-8.4,5.2-12.4,8.9c1.9-4.7,8.7-9.1,20.9-13.7
		c0,0.1-0.1,0.2-0.1,0.3C73.4,339.1,73.5,339.2,73.6,339.4z"/>
	<path class="st6" d="M243.7,182.6c5.9-3.9,12.2-6.9,19.3-8.2c0.3,0.1,0.4,0.2,0.4,0.5c-6.5,2.4-12.9,5.1-19.1,8.4
		C244.1,183,243.9,182.8,243.7,182.6z"/>
	<path class="st9" d="M214.9,282.4c-1-4.4-2-8.9-3-13.3c0.2-0.1,0.5-0.1,0.7-0.2c1.6,5.4,3.3,10.8,4.4,16.4
		C215.1,285.3,215.5,283.5,214.9,282.4z"/>
	<path class="st11" d="M50.7,357.1c-0.2,2.2,1.6,3.8,1.7,5.9c-1.8-1.6-3.4-3.2-2.1-5.9c0,0,0.2,0,0.2,0L50.7,357.1z"/>
	<path class="st6" d="M73.5,338.7c2-1.1,4.2-1.8,6.6-1.7c-1.9,1.4-4,2.3-6.4,2.4c-0.1-0.1-0.2-0.3-0.2-0.4
		C73.4,338.9,73.4,338.8,73.5,338.7z"/>
	<path class="st6" d="M158.1,309.4c1.6-1.1,3.5-1,5.4-1.3c-1.4,1.5-3.1,2.1-5,2.1C158.3,309.9,158.2,309.6,158.1,309.4z"/>
	<path class="st6" d="M82.2,336.4c1-1.3,2.5-1,3.8-1.3C85,336.5,83.7,336.7,82.2,336.4z"/>
	<path class="st2" d="M203.4,244.3c-0.1,1.7-0.2,3.4-0.2,5C202,247.6,202.7,245.9,203.4,244.3z"/>
	<path class="st11" d="M213.6,213.8c0-1.4,0.5-2.5,1.8-3.3C215.6,212.2,214.5,213,213.6,213.8z"/>
	<path class="st6" d="M229.1,193.5c0.5-1.1,1.3-1.8,2.4-2.2c0.2,0.2,0.3,0.3,0.5,0.5c-0.5,1.1-1.2,1.9-2.4,2.2
		C229.5,193.8,229.3,193.6,229.1,193.5z"/>
	<path class="st2" d="M202,256.3c-0.2-2.2-0.5-3.4,0.3-4.7C202.8,253.1,202.9,254.4,202,256.3z"/>
	<path class="st11" d="M266.4,173.8c-0.7,1.2-2,0.6-3,1.1c0-0.3-0.2-0.4-0.4-0.5c0.9-0.9,2.2-0.9,3.3-1.1
		C266.4,173.4,266.4,173.6,266.4,173.8z"/>
	<path class="st2" d="M273.3,172.3c1.2-1.4,2.8-0.3,4.1-0.9c0,0.3,0,0.6,0.1,0.9C276.1,172.2,274.7,172.2,273.3,172.3
		C273.3,172.2,273.3,172.3,273.3,172.3z"/>
	<path class="st6" d="M240.8,184.3c0.8-0.9,1.8-1.5,2.9-1.7c0.2,0.2,0.4,0.4,0.6,0.6c-0.8,0.9-1.8,1.5-3,1.7
		C241.1,184.7,240.9,184.5,240.8,184.3z"/>
	<path class="st11" d="M269.5,173c1.1-1.3,2.5-1,3.8-0.7c0,0,0,0,0,0C272.2,173.5,270.8,172.9,269.5,173
		C269.4,173,269.5,173,269.5,173z"/>
	<path class="st2" d="M203.6,239.1c0.3,0,0.6,0.1,0.9,0.1c-0.5,1.2,0,2.5-0.9,3.6C202.8,241.6,203.3,240.3,203.6,239.1z"/>
	<path class="st6" d="M217,207.5c0.1-0.8,0.6-1.3,1.2-1.7c0.2,0.2,0.4,0.4,0.6,0.5c-0.2,1-0.8,1.7-1.7,2.2
		C217.2,208.1,217.1,207.8,217,207.5z"/>
	<path class="st6" d="M238.5,185.8c0.6-0.8,1.4-1.2,2.3-1.5c0.2,0.2,0.4,0.4,0.5,0.6c-0.5,1-1.3,1.3-2.3,1.5
		C238.8,186.2,238.7,186,238.5,185.8z"/>
	<path class="st6" d="M225,198.6c-0.2,0.8-0.7,1.4-1.4,1.7c-0.2-0.2-0.4-0.4-0.5-0.6c0.2-0.8,0.7-1.3,1.5-1.6
		C224.7,198.2,224.8,198.4,225,198.6z"/>
	<path class="st6" d="M219.2,204.4c0.2-0.8,0.6-1.3,1.4-1.6c0.2,0.2,0.4,0.3,0.6,0.5c-0.2,0.8-0.6,1.3-1.4,1.7
		C219.6,204.7,219.4,204.5,219.2,204.4z"/>
	<path class="st6" d="M239,186.4c-0.3,0.7-0.9,1.2-1.7,1.4c-0.2-0.2-0.4-0.4-0.6-0.6c0.3-0.7,1-1.2,1.7-1.4
		C238.7,186,238.8,186.2,239,186.4z"/>
	<path class="st2" d="M52.4,352.6c0,0.5-0.3,0.9-0.7,1.2c-0.5,0.4-0.7-0.2-0.6-0.4c0.2-0.4,0.6-0.7,0.9-1.1
		C52,352.3,52.2,352.5,52.4,352.6z"/>
	<path class="st6" d="M233.8,189.5c0.3-0.7,0.8-1.2,1.6-1.4c0.2,0.2,0.4,0.4,0.5,0.6c-0.3,0.7-0.9,1.1-1.7,1.4
		C234.1,189.9,233.9,189.7,233.8,189.5z"/>
	<path class="st2" d="M266.4,173.8c0.1-0.2,0.1-0.3,0-0.5c1-0.4,2.1-0.4,3.2-0.3c0,0,0,0,0,0C268.6,174.1,267.4,173.7,266.4,173.8z"
		/>
	<path class="st2" d="M50.7,357.1l-0.2-0.1c0,0-0.2,0-0.2,0c-0.1-0.3-0.2-0.7-0.2-1c0-0.4-0.1-1,0.6-0.9c0.1,0,0.2,0.6,0.2,1
		C50.9,356.4,50.8,356.7,50.7,357.1z"/>
	<path class="st0" d="M213.8,303.3c-0.5-0.4-0.5-1-0.4-1.6C214,302.1,214,302.6,213.8,303.3z"/>
	<path class="st6" d="M237.3,187.8c-0.3,0.5-0.9,0.7-1.4,0.9c-0.2-0.2-0.4-0.4-0.5-0.6c0.3-0.5,0.8-0.8,1.4-0.9
		C236.9,187.4,237.1,187.6,237.3,187.8z"/>
	<path class="st11" d="M217,207.5c0.1,0.3,0.1,0.7,0.2,1c-0.1,0.4-0.3,0.7-0.7,0.8c-0.1-0.1-0.2-0.2-0.3-0.3
		C216.3,208.4,216.4,207.8,217,207.5z"/>
	<path class="st6" d="M220.6,202.7c0.2-0.6,0.4-1.1,0.9-1.4c0.2,0.2,0.4,0.4,0.6,0.5c-0.1,0.6-0.4,1.1-0.9,1.4
		C221,203,220.8,202.9,220.6,202.7z"/>
	<path class="st6" d="M219.8,204.9c-0.2,0.5-0.4,1.1-0.9,1.4c-0.2-0.2-0.4-0.4-0.6-0.5c0.2-0.6,0.4-1.1,1-1.4
		C219.4,204.5,219.6,204.7,219.8,204.9z"/>
	<path class="st6" d="M234.2,190.1c-0.3,0.6-0.8,0.8-1.4,0.9c-0.2-0.2-0.3-0.4-0.5-0.5c0.3-0.6,0.9-0.8,1.4-1
		C233.9,189.7,234.1,189.9,234.2,190.1z"/>
	<path class="st6" d="M226.1,196.5c0.3-0.3,0.5-0.5,0.8-0.8c0.2,0.2,0.3,0.3,0.5,0.5c-0.3,0.3-0.5,0.5-0.8,0.8
		C226.4,196.9,226.2,196.7,226.1,196.5z"/>
	<path class="st6" d="M227.6,195c0.3-0.3,0.5-0.5,0.8-0.8c0.2,0.2,0.3,0.3,0.5,0.5c-0.3,0.3-0.5,0.5-0.8,0.8
		C227.9,195.3,227.8,195.2,227.6,195z"/>
	<path class="st6" d="M226.5,197c-0.3,0.3-0.5,0.5-0.8,0.8c-0.2-0.2-0.3-0.3-0.5-0.5c0.3-0.3,0.5-0.5,0.8-0.8
		C226.2,196.7,226.4,196.9,226.5,197z"/>
	<path class="st6" d="M228.1,195.5c-0.3,0.3-0.5,0.5-0.8,0.8c-0.2-0.2-0.3-0.3-0.5-0.5c0.3-0.3,0.5-0.5,0.8-0.8
		C227.8,195.2,227.9,195.3,228.1,195.5z"/>
	<path class="st6" d="M225.8,197.8c-0.3,0.3-0.5,0.5-0.8,0.8c-0.2-0.2-0.3-0.3-0.5-0.5c0.3-0.3,0.5-0.5,0.8-0.8
		C225.5,197.5,225.6,197.6,225.8,197.8z"/>
	<path class="st6" d="M222.3,200.5c0.2-0.3,0.5-0.5,0.7-0.8c0.2,0.2,0.4,0.4,0.5,0.6c-0.3,0.3-0.5,0.5-0.8,0.7
		C222.7,200.8,222.5,200.7,222.3,200.5z"/>
	<path class="st14" d="M74,363.5c0.2,0.2,0.6,0.5,0.6,0.7c0.1,0.4-0.3,0.5-0.7,0.4C73.5,364.3,73.5,363.9,74,363.5z"/>
	<path class="st6" d="M228.4,194.2c0.3-0.3,0.5-0.5,0.8-0.8c0.2,0.2,0.4,0.4,0.6,0.6c-0.3,0.2-0.6,0.5-0.8,0.7
		C228.7,194.6,228.5,194.4,228.4,194.2z"/>
	<path class="st6" d="M221.6,201.3c0.3-0.3,0.5-0.5,0.8-0.8c0.2,0.2,0.3,0.3,0.5,0.5c-0.2,0.3-0.5,0.5-0.7,0.8
		C221.9,201.6,221.7,201.5,221.6,201.3z"/>
	<path class="st11" d="M216.5,209.3c-0.2,0.2-0.4,0.5-0.6,0.7c-0.5-0.5-0.1-0.8,0.3-1C216.3,209.1,216.4,209.2,216.5,209.3z"/>
	<path class="st6" d="M232.8,191c-0.3,0.2-0.5,0.5-0.8,0.7c-0.2-0.2-0.3-0.3-0.5-0.5c0.3-0.3,0.5-0.5,0.8-0.8
		C232.5,190.7,232.7,190.8,232.8,191z"/>
	<path class="st15" d="M140.2,313c0.3-0.2,0.5-0.4,0.8-0.7C140.9,312.7,140.8,313.1,140.2,313z"/>
	<path class="st15" d="M325.6,46.7c0.3-0.6,0.9-0.7,1.5-0.8l0,0C326.8,46.6,326.2,46.7,325.6,46.7L325.6,46.7z"/>
	<path class="st15" d="M325.6,46.7c-0.3,0.7-0.9,0.7-1.5,0.8l0,0C324.4,46.9,325,46.7,325.6,46.7C325.6,46.7,325.6,46.7,325.6,46.7z
		"/>
	<path class="st15" d="M324,47.5c-0.3,0.7-0.9,0.7-1.5,0.8c0,0,0,0,0,0C322.9,47.6,323.4,47.5,324,47.5
		C324.1,47.5,324,47.5,324,47.5z"/>
	<path class="st15" d="M321,49c0.3-0.6,0.9-0.7,1.5-0.8c0,0,0,0,0,0C322.2,48.9,321.6,49,321,49L321,49z"/>
	<path class="st15" d="M321,49c-0.3,0.6-0.9,0.7-1.5,0.8l0,0C319.8,49.2,320.4,49.1,321,49C321,49,321,49,321,49z"/>
	<path class="st15" d="M319.4,49.8c-0.3,0.6-0.9,0.7-1.5,0.8l0,0C318.2,49.9,318.8,49.9,319.4,49.8
		C319.5,49.8,319.4,49.8,319.4,49.8z"/>
	<path class="st15" d="M317.9,50.5c-0.2,0.3-0.7,0.7-0.8,0.5C316.9,50.2,317.6,50.8,317.9,50.5C317.9,50.6,317.9,50.5,317.9,50.5z"
		/>
	<path class="st15" d="M313.4,52.3c0,0.1,0.1,0.2,0.1,0.3c-0.1,0-0.2,0.1-0.3,0.1c0,0-0.1-0.2-0.1-0.3
		C313.2,52.4,313.3,52.3,313.4,52.3z"/>
	<path class="st15" d="M327.1,46c0.2-0.3,0.7-0.7,0.7-0.5C328.1,46.2,327.4,45.7,327.1,46C327.1,45.9,327.1,46,327.1,46z"/>
	<path class="st12" d="M178.9,73.6c-0.6-5.5-1.2-11-1.7-16.6c-0.2-2-0.1-4.1-0.2-6.1c-0.3-5.6-1.1-11.1-0.1-16.7
		c0.4-2.4,0.7-2.6,3.1-1.7c-0.2,0.2-0.4,0.3-0.7,0.5c-1.2,0.1-1.4,1.1-1.4,2c0.1,4.2-0.6,8.3-0.3,12.5c0.5,6.1,1,12.2,1.2,18.3
		c0.1,2.6,0.9,5.2,0.4,7.9c0,0-0.1-0.1-0.1-0.1L178.9,73.6z"/>
	<path class="st12" d="M180,32.5c2.6,3.4,3.8,7.4,5.1,11.4c0.5,1.8,1.3,3.6,1.9,5.3c-0.4-0.1-0.8-0.1-1.2-0.2
		c-1.9-5.4-3.5-11-6.4-16C179.5,32.8,179.8,32.6,180,32.5z"/>
	<path class="st6" d="M185.7,49c0.4,0.1,0.8,0.1,1.2,0.2c0.3,1,0.9,2,0.8,3.6C186.2,51.7,186,50.3,185.7,49z"/>
	<path class="st9" d="M180.1,77.4c1.1,1,0.7,2.2,0.7,3.6c-1.3-1.1-1.4-2.3-1.3-3.6C179.8,77.5,180,77.5,180.1,77.4z"/>
	<path class="st6" d="M180.1,77.4c-0.2,0-0.4,0.1-0.5,0.1c-0.2-1.3-0.8-2.6-0.7-3.9c0,0,0.2-0.1,0.2-0.1s0.1,0.1,0.1,0.1
		C180.6,74.6,180.2,76.1,180.1,77.4z"/>
	<path class="st13" d="M450.3,262.6c-0.3,1.7-0.5,3.4-2.6,3.7c-5.5,0.9-11,2.2-16.5,0.5c-2.5-0.8-4.7-2-5.6-4.7c2.2-2,5-2.9,7.5-4.5
		c2.1-1.3,4.7-0.7,7.1-0.3c2.3,0.3,4.5,1,5.2,3.7c0.3,1.1,1.2,1.5,2.4,1.5C448.5,262.4,449.4,262.5,450.3,262.6z"/>
	<path class="st0" d="M461.7,237c0.3,3.5,0.9,7,3,10c-7-1.1-14.2-1.3-21.1-3.3C449.6,241.4,455.7,239.2,461.7,237z"/>
	<path class="st12" d="M461.7,237c-6,2.2-12.1,4.5-18.1,6.7c0,0-0.4-0.1-0.4-0.1c0-0.3-0.1-0.7-0.1-1c6.2-2.2,12.4-4.3,18.6-6.5
		C461.7,236.4,461.7,236.7,461.7,237z"/>
	<path class="st2" d="M443.1,242.6c0,0.3,0.1,0.7,0.1,1c-0.7,0.3-1.2,0.1-1.6-0.4C442.1,243,442.6,242.8,443.1,242.6z"/>
	<path class="st15" d="M507.9,300.7c-0.2,0.2-0.4,0.4-0.6,0.6C507.4,301.1,507.7,300.9,507.9,300.7z"/>
	<path class="st2" d="M401,179.2c-1.9,5.7,1.1,10.5,2.8,15.6c-2.7-4-4.6-8.3-4.3-13.2c0.1-1.1,0.4-2,1.4-2.6
		C400.8,179,401,179.2,401,179.2z"/>
	<path class="st2" d="M412.4,172.1c2-1.7,4.7-1.6,7-2.6c-1.7,1.7-3.3,2.3-6.8,2.8L412.4,172.1z"/>
	<path class="st2" d="M404.3,196.1c1.2,1.6,2,2.9,1.8,5.3C405.2,199.4,404.1,198.2,404.3,196.1z"/>
	<path class="st2" d="M407,174.3c0.8-0.9,1.7-1.3,3.2-1.3c-0.8,1.3-1.8,1.6-2.9,1.6C407.1,174.5,407,174.4,407,174.3z"/>
	<path class="st2" d="M404.1,176.2c-0.5,0.9-1.2,1.5-2.3,1.5l-0.2-0.1c0.4-1,1.1-1.6,2.2-1.6C403.9,175.9,404.1,176.2,404.1,176.2z"
		/>
	<path class="st2" d="M405.7,175.4c-0.3,0.6-0.9,0.7-1.5,0.8c0,0-0.2-0.2-0.2-0.2c0.3-0.7,0.9-0.8,1.5-0.8
		C405.4,175.1,405.7,175.4,405.7,175.4z"/>
	<path class="st2" d="M407.2,174.6c-0.3,0.6-0.9,0.7-1.5,0.8c0,0-0.2-0.3-0.2-0.3c0.3-0.6,0.9-0.7,1.5-0.8
		C407,174.4,407.1,174.5,407.2,174.6z"/>
	<path class="st2" d="M412.6,172.3c-0.2,0.5-0.6,0.6-1.1,0.5c-0.1,0-0.2-0.2-0.2-0.2c0.3-0.5,0.7-0.4,1.2-0.5
		C412.4,172.1,412.6,172.3,412.6,172.3z"/>
	<path class="st2" d="M401.9,177.7c0,0.7-0.2,1.2-0.9,1.5c0,0-0.2-0.1-0.2-0.1c0-0.7,0.2-1.2,0.9-1.5
		C401.7,177.6,401.9,177.7,401.9,177.7z"/>
	<path class="st14" d="M411.8,234.5c-0.4-0.1-0.7-0.3-0.8-0.8C411.7,233.5,411.7,234.1,411.8,234.5z"/>
	<path class="st15" d="M273.3,133.7c-0.2,2.4-1.1,4.6-3.1,6.1c0,0,0,0,0,0C270.5,137.4,271.4,135.3,273.3,133.7L273.3,133.7z"/>
	<path class="st15" d="M269.4,141.4c0,0.6-0.1,1.2-0.8,1.5c0,0,0,0,0,0C268.7,142.3,268.8,141.7,269.4,141.4L269.4,141.4z"/>
	<path class="st15" d="M277.9,122.9c-0.1,0.3-0.2,0.7-0.2,1C276.9,123.4,277.6,123.2,277.9,122.9L277.9,122.9z"/>
	<path class="st15" d="M266.3,146.8c-0.1,0.3-0.2,0.7-0.3,1C265.4,147.2,266.1,147.1,266.3,146.8
		C266.4,146.8,266.3,146.8,266.3,146.8z"/>
	<path class="st15" d="M266.4,146.8c0-0.6,0.1-1.2,0.8-1.5l0,0C267.1,145.9,267,146.5,266.4,146.8
		C266.3,146.8,266.4,146.8,266.4,146.8z"/>
	<path class="st15" d="M276.4,126.8c0.1-0.3,0.2-0.7,0.3-1C277.3,126.3,276.7,126.5,276.4,126.8
		C276.3,126.8,276.4,126.8,276.4,126.8z"/>
	<path class="st15" d="M267.9,144.5c0-0.6,0.1-1.2,0.8-1.5c0,0,0,0,0,0C268.6,143.6,268.5,144.1,267.9,144.5
		C267.9,144.5,267.9,144.5,267.9,144.5z"/>
	<path class="st15" d="M275.6,128.3c0-0.6,0.1-1.2,0.8-1.5c0,0,0,0,0,0C276.3,127.4,276.2,128,275.6,128.3L275.6,128.3z"/>
	<path class="st15" d="M269.5,141.4c0-0.6,0.1-1.2,0.8-1.6c0,0,0,0,0,0C270.2,140.5,270.1,141.1,269.5,141.4
		C269.4,141.4,269.5,141.4,269.5,141.4z"/>
	<path class="st15" d="M273.3,133.7c0-0.6,0.1-1.2,0.8-1.5l0,0C274,132.8,273.9,133.4,273.3,133.7
		C273.3,133.7,273.3,133.7,273.3,133.7z"/>
	<path class="st15" d="M274.1,132.2c0.1-0.3,0.2-0.7,0.2-1C275,131.7,274.3,131.9,274.1,132.2C274,132.2,274.1,132.2,274.1,132.2z"
		/>
	<path class="st15" d="M275.6,128.3c-0.1,0.3-0.2,0.7-0.2,1C274.6,128.8,275.3,128.6,275.6,128.3
		C275.6,128.3,275.6,128.3,275.6,128.3z"/>
	<path class="st15" d="M267.1,145.3c0.3-0.3,0.5-0.5,0.8-0.8c0,0,0,0,0,0C267.6,144.7,267.4,145,267.1,145.3
		C267.1,145.2,267.1,145.3,267.1,145.3z"/>
	<path class="st15" d="M277.9,123c0.1-0.1,0.1-0.3,0.2-0.3C278.3,122.7,278.3,122.8,277.9,123C277.9,122.9,277.9,123,277.9,123z"/>
	<path class="st3" d="M94.4,293.8c0.5-6.7,0.1-13.5,0.9-20.2c0.1-1,0.2-1.8-1.1-2.6c-4.4,6.1-8.5,12.2-9.9,19.9
		c-2.4-0.3-3.2-2.1-3.2-4.1c-0.1-4.8,1.1-9.3,3.2-13.6c1.6-3.4,6.1-5.4,9.7-4.7c3.8,0.7,6.2,3.5,7.2,7.8c0.7,2.9,0.7,5.7,0.1,8.7
		c-0.5,2.1-0.5,4.3,0.2,6.4c0.5,1.5,0.4,3,0.4,4.6c0,1.1-0.4,2-1.6,2.3c-1.3,0.3-2.2-0.1-2.9-1.2C96.5,295.8,96.3,294.1,94.4,293.8z
		"/>
	<path class="st6" d="M95.8,313.9c-0.2-3.1-0.4-6.2-0.7-9.3C98.8,307.9,99,311.1,95.8,313.9z"/>
	<path class="st6" d="M94.9,318.5c-0.1-0.5,0.1-0.9,0.5-1.2C95.5,317.9,95.3,318.2,94.9,318.5z"/>
	<path class="st11" d="M325.3,282.3c-2.3,1.7-5,2.6-7.8,3.1C319.7,283.5,322.5,282.9,325.3,282.3z"/>
	<path class="st9" d="M304.6,291.1c-0.7,0.9-1.4,1.2-2.4,1c-0.2-0.8,0.5-0.9,0.9-1.2C303.5,290.7,304,290.5,304.6,291.1z"/>
	<path class="st6" d="M311.8,287.8c-0.9,1-1.6,1.7-2.9,1.4C309.2,287.8,310.2,287.7,311.8,287.8z"/>
	<path class="st6" d="M307.9,289.6c-0.3,0.2-0.5,0.5-0.8,0.6c-0.4,0.2-0.8,0.2-0.9-0.3c-0.1-0.5,0.3-0.7,0.7-0.7
		C307.2,289.2,307.6,289.2,307.9,289.6z"/>
</g>
</svg>
